<svg xmlns="http://www.w3.org/2000/svg" width="1600" height="1040" viewBox="0 0 1600 1040" fill="none">
  <defs>
    <style>
      .bg { fill: #052f36; }
      .panel { fill: #0b3a43; stroke: rgba(255,255,255,0.12); stroke-width: 2; }
      .card { fill: #0d4049; stroke: rgba(255,255,255,0.1); stroke-width: 2; }
      .soft { fill: rgba(255,255,255,0.08); stroke: rgba(255,255,255,0.16); stroke-width: 2; }
      .accent { fill: #ff315f; }
      .accentStroke { fill: rgba(255,49,95,0.12); stroke: #ff315f; stroke-width: 2; }
      .title { font: 700 28px Arial, sans-serif; fill: #f8fafc; }
      .logo { font: 800 36px Arial, sans-serif; fill: #ff315f; }
      .nav { font: 700 18px Arial, sans-serif; fill: #dce7eb; text-transform: uppercase; }
      .label { font: 700 20px Arial, sans-serif; fill: #f8fafc; }
      .small { font: 500 17px Arial, sans-serif; fill: #bfd0d5; }
      .tiny { font: 500 14px Arial, sans-serif; fill: #9fb4bb; }
    </style>
  </defs>

  <rect class="bg" x="0" y="0" width="1600" height="1040"/>
  <text class="title" x="76" y="60">Рисунок 2.5 - Схема страницы каталога AnimeAttire</text>

  <rect x="86" y="92" width="1428" height="88" rx="18" fill="rgba(5,47,54,0.88)"/>
  <text class="logo" x="120" y="143">AnimeAttire</text>
  <text class="tiny" x="124" y="162">アニメの服</text>
  <text class="nav" x="705" y="144">КАТАЛОГ</text>
  <text class="nav" x="860" y="144">РЕКОМЕНДАЦИИ</text>
  <text class="nav" x="1078" y="144">КОНТАКТЫ</text>
  <rect class="soft" x="1306" y="108" width="50" height="50"/>
  <rect class="soft" x="1372" y="108" width="50" height="50"/>

  <rect class="panel" x="86" y="208" width="340" height="760" rx="0"/>
  <text class="accent" x="118" y="252" style="font:700 18px Arial, sans-serif;">ФИЛЬТРЫ</text>
  <rect class="soft" x="118" y="278" width="276" height="56" rx="0"/>
  <rect class="soft" x="118" y="352" width="276" height="56" rx="0"/>
  <rect class="soft" x="118" y="426" width="276" height="56" rx="0"/>
  <rect class="soft" x="118" y="500" width="276" height="56" rx="0"/>
  <rect class="soft" x="118" y="574" width="276" height="56" rx="0"/>
  <rect class="accentStroke" x="118" y="656" width="276" height="48" rx="0"/>
  <text class="small" x="142" y="312">Категория</text>
  <text class="small" x="142" y="386">Франшиза</text>
  <text class="small" x="142" y="460">Поиск: Наруто / Оверсайз</text>
  <text class="small" x="142" y="534">Размер</text>
  <text class="small" x="142" y="608">Только в наличии</text>
  <text x="160" y="687" style="font:700 15px Arial, sans-serif; fill:#f8fafc;">Подходящие товары</text>

  <rect class="panel" x="454" y="208" width="1060" height="88" rx="0"/>
  <text class="label" x="486" y="245">Каталог</text>
  <rect class="soft" x="486" y="258" width="442" height="24" rx="0"/>
  <rect class="soft" x="1038" y="234" width="188" height="34" rx="0"/>
  <rect class="soft" x="1244" y="234" width="238" height="34" rx="0"/>
  <text class="tiny" x="1046" y="228">Сортировка</text>
  <text class="tiny" x="1260" y="228">Теги: Бестселлер / Новый дроп</text>

  <rect class="panel" x="454" y="324" width="1060" height="644" rx="0"/>
  <rect class="card" x="486" y="356" width="300" height="270" rx="0"/>
  <rect class="card" x="834" y="356" width="300" height="270" rx="0"/>
  <rect class="card" x="1182" y="356" width="300" height="270" rx="0"/>
  <rect class="card" x="486" y="662" width="300" height="270" rx="0"/>
  <rect class="card" x="834" y="662" width="300" height="270" rx="0"/>
  <rect class="card" x="1182" y="662" width="300" height="270" rx="0"/>

  <rect class="soft" x="516" y="386" width="240" height="138" rx="0"/>
  <rect class="soft" x="864" y="386" width="240" height="138" rx="0"/>
  <rect class="soft" x="1212" y="386" width="240" height="138" rx="0"/>
  <rect class="soft" x="516" y="692" width="240" height="138" rx="0"/>
  <rect class="soft" x="864" y="692" width="240" height="138" rx="0"/>
  <rect class="soft" x="1212" y="692" width="240" height="138" rx="0"/>

  <text class="tiny" x="576" y="460">Изображение товара</text>
  <text class="tiny" x="924" y="460">Изображение товара</text>
  <text class="tiny" x="1272" y="460">Изображение товара</text>
  <text class="tiny" x="576" y="766">Изображение товара</text>
  <text class="tiny" x="924" y="766">Изображение товара</text>
  <text class="tiny" x="1272" y="766">Изображение товара</text>

  <text class="label" x="516" y="558">Название товара</text>
  <text class="small" x="516" y="586">Цена</text>

  <text class="label" x="864" y="558">Название товара</text>
  <text class="small" x="864" y="586">Цена</text>

  <text class="label" x="1212" y="558">Название товара</text>
  <text class="small" x="1212" y="586">Цена</text>

  <text class="label" x="516" y="864">Название товара</text>
  <text class="small" x="516" y="892">Цена</text>
  <text class="label" x="864" y="864">Название товара</text>
  <text class="small" x="864" y="892">Цена</text>
  <text class="label" x="1212" y="864">Название товара</text>
  <text class="small" x="1212" y="892">Цена</text>
</svg>
